<svg viewBox="0 0 22 22" xmlns="http://www.w3.org/2000/svg">
<path fill-rule="evenodd" clip-rule="evenodd" d="M3.23013 3.22189C7.52565 -1.07364 14.4908 -1.07364 18.7863 3.22189C23.0819 7.51741 23.0819 14.4826 18.7863 18.7781C14.4908 23.0736 7.52565 23.0736 3.23013 18.7781C-1.0654 14.4826 -1.0654 7.51741 3.23013 3.22189ZM17.3721 4.6361C13.8577 1.12162 8.15882 1.12162 4.64434 4.6361C1.12986 8.15058 1.12986 13.8494 4.64434 17.3639C8.15882 20.8784 13.8577 20.8784 17.3721 17.3639C20.8866 13.8494 20.8866 8.15058 17.3721 4.6361ZM7.47319 7.46382C7.86375 7.07333 8.49691 7.07339 8.8874 7.46395L11.0082 9.58516L13.1291 7.46395C13.5196 7.07339 14.1527 7.07333 14.5433 7.46382C14.9338 7.85431 14.9339 8.48748 14.5434 8.87804L12.4223 10.9995L14.5434 13.1209C14.9339 13.5115 14.9338 14.1447 14.5433 14.5352C14.1527 14.9257 13.5196 14.9256 13.1291 14.535L11.0082 12.4138L8.8874 14.535C8.49691 14.9256 7.86375 14.9257 7.47319 14.5352C7.08263 14.1447 7.08257 13.5115 7.47306 13.1209L9.59414 10.9995L7.47306 8.87804C7.08257 8.48748 7.08263 7.85431 7.47319 7.46382Z" />
</svg>
